# xmcd
#
# Track frame offsets: 
#        183
#        21485
#        44910
#        62255
#        86650
#        105380
#        120003
#        147265
#        168763
#
# Disc length: 2483 seconds
#
# Revision: 1
# Processed by: cddbd v1.5.1PL2 Copyright (c) Steve Scherf et al.
# Submitted via: ExactAudioCopy v0.95b4
#
DISCID=6c09b109
DTITLE=Richard Thompson - Hand of Kindness
DYEAR=1983
DGENRE=Folk/Rock
TTITLE0=Tear Stained Letter
TTITLE1=How I Wanted To
TTITLE2=Both Ends Burning
TTITLE3=A Poisoned Heart And a Twisted Memory
TTITLE4=Where The Wind Don't Whine
TTITLE5=The Wrong Heartbeat
TTITLE6=Hand of Kindness
TTITLE7=Devonside
TTITLE8=Two Left Feet
EXTD=
EXTT0=
EXTT1=
EXTT2=
EXTT3=
EXTT4=
EXTT5=
EXTT6=
EXTT7=
EXTT8=
PLAYORDER=
